<?xml version="1.0" standalone="no"?>
<!DOCTYPE svg PUBLIC "-//W3C//DTD SVG 20010904//EN"
 "http://www.w3.org/TR/2001/REC-SVG-20010904/DTD/svg10.dtd">
<svg version="1.0" xmlns="http://www.w3.org/2000/svg"
 width="256.000000pt" height="256.000000pt" viewBox="0 0 256.000000 256.000000"
 preserveAspectRatio="xMidYMid meet">

<g transform="translate(0.000000,256.000000) scale(0.100000,-0.100000)"
fill="#000000" stroke="none">
<path d="M1195 2230 c-83 -13 -128 -28 -178 -60 -44 -28 -55 -30 -136 -30 -99
0 -101 -2 -101 -71 l0 -38 -142 -3 -143 -3 -3 -839 c-1 -462 2 -844 6 -848 11
-11 1553 -11 1564 0 4 4 7 386 6 848 l-3 839 -142 3 -143 3 0 38 c0 69 -2 71
-100 71 -81 0 -93 3 -138 30 -83 52 -235 78 -347 60z m-417 -320 c2 -27 9 -50
19 -57 13 -10 126 -13 485 -13 455 0 469 1 488 20 13 13 20 33 20 60 l0 40
105 0 105 0 0 -780 0 -780 -720 0 -720 0 0 773 c0 426 3 777 7 781 4 4 52 5
107 4 l101 -3 3 -45z"/>
<path d="M1658 1684 c-26 -14 -58 -60 -58 -84 0 -5 15 -10 33 -10 26 0 36 6
45 25 15 31 57 43 91 24 42 -24 38 -53 -14 -101 -33 -31 -47 -53 -52 -80 -5
-37 -5 -38 25 -38 23 0 32 6 38 23 3 12 28 45 55 74 27 28 49 61 49 73 0 34
-28 78 -60 95 -37 19 -117 19 -152 -1z"/>
<path d="M776 1584 c-19 -19 -20 -36 -4 -52 17 -17 739 -17 756 0 18 18 14 46
-7 58 -13 6 -149 10 -375 10 -309 0 -357 -2 -370 -16z"/>
<path d="M772 1438 c-16 -16 -15 -43 2 -57 9 -8 100 -11 312 -9 l299 3 3 29
c2 16 -2 32 -10 37 -22 14 -592 11 -606 -3z"/>
<path d="M1700 1355 c0 -33 2 -35 35 -35 33 0 35 2 35 35 0 33 -2 35 -35 35
-33 0 -35 -2 -35 -35z"/>
<path d="M830 1239 c0 -6 20 -31 45 -56 25 -24 48 -54 51 -66 3 -15 112 -96
321 -242 173 -121 317 -223 319 -227 12 -20 -18 -3 -96 52 -87 62 -114 72
-108 44 4 -23 267 -207 284 -200 21 8 17 20 -17 45 -39 29 -33 36 16 15 53
-22 85 -7 85 39 0 24 -8 41 -32 64 -18 17 -179 133 -358 258 -256 180 -335
230 -370 237 -24 4 -61 17 -82 28 -44 23 -58 25 -58 9z m148 -90 c-2 -6 -8
-10 -13 -10 -5 0 -11 4 -13 10 -2 6 4 11 13 11 9 0 15 -5 13 -11z m159 -93 c9
-9 9 -15 -1 -28 -12 -16 -18 -14 -74 25 -63 43 -71 54 -50 75 9 9 23 3 62 -25
28 -20 56 -41 63 -47z m264 -182 c115 -80 211 -149 214 -154 2 -4 -1 -15 -8
-24 -11 -15 -35 0 -225 133 -118 82 -216 152 -219 155 -6 5 15 36 24 36 2 0
99 -66 214 -146z m277 -196 c11 -11 17 -48 7 -48 -10 0 -55 24 -55 30 0 8 22
30 30 30 3 0 11 -5 18 -12z"/>
</g>
</svg>
